<?xml version="1.0" standalone="no"?>
<!DOCTYPE svg PUBLIC "-//W3C//DTD SVG 20010904//EN"
 "http://www.w3.org/TR/2001/REC-SVG-20010904/DTD/svg10.dtd">
<svg version="1.0" xmlns="http://www.w3.org/2000/svg"
 width="700.000000pt" height="700.000000pt" viewBox="0 0 700.000000 700.000000"
 preserveAspectRatio="xMidYMid meet">
<metadata>
Created by potrace 1.14, written by Peter Selinger 2001-2017
</metadata>
<g transform="translate(0.000000,700.000000) scale(0.100000,-0.100000)"
fill="#000000" stroke="none">
<path d="M0 3500 l0 -3500 3500 0 3500 0 0 3500 0 3500 -3500 0 -3500 0 0
-3500z m4910 2425 c225 -52 392 -185 495 -394 52 -104 65 -173 65 -342 l0
-146 -66 -79 c-72 -87 -174 -220 -250 -329 l-49 -70 -5 380 c-5 375 -5 381
-29 428 -33 67 -101 134 -169 165 l-57 27 -1471 3 -1471 2 -26 -20 -27 -21 -2
-287 -3 -287 -187 -3 -188 -2 0 278 c0 159 5 304 11 337 32 173 152 307 323
361 32 10 358 13 1541 13 1300 1 1509 -1 1565 -14z m1739 -634 c81 -25 139
-60 190 -116 184 -200 153 -552 -67 -775 -65 -65 -94 -86 -189 -134 -62 -30
-145 -65 -185 -76 -77 -21 -195 -26 -260 -11 l-37 9 16 -32 c24 -44 22 -131
-4 -181 -27 -52 -113 -132 -183 -172 -112 -64 -315 -113 -467 -113 -35 0 -63
-3 -63 -6 0 -3 11 -24 24 -47 48 -84 41 -177 -19 -259 -66 -90 -172 -141 -338
-160 -91 -11 -102 -14 -114 -38 -8 -14 -109 -209 -224 -435 -116 -225 -222
-427 -236 -448 -84 -122 -248 -66 -246 85 1 36 11 66 46 130 24 46 124 241
222 433 358 706 555 1058 784 1404 391 591 714 885 1046 955 11 2 70 4 132 5
83 1 126 -4 172 -18z m-4644 -570 c78 -36 115 -95 115 -182 0 -93 -58 -166
-150 -189 -30 -7 -138 -10 -320 -8 -264 3 -277 4 -317 26 -141 75 -134 287 12
353 36 17 70 19 330 19 261 0 294 -2 330 -19z m2403 -218 l-3 -138 -835 0
-835 0 -3 138 -3 137 841 0 841 0 -3 -137z m-2560 -995 l-3 -623 -187 -3 -188
-2 0 625 0 625 190 0 190 0 -2 -622z m2562 -28 l0 -140 -840 0 -840 0 0 140 0
140 840 0 840 0 0 -140z m1044 -1858 c-47 -218 -222 -418 -437 -503 -124 -49
-119 -49 -1671 -49 -1578 0 -1531 -1 -1636 56 -47 25 -132 104 -165 151 -9 12
-28 53 -42 90 -27 68 -27 69 -31 381 l-4 312 191 0 191 0 0 -285 c0 -272 1
-286 20 -305 20 -20 29 -20 1508 -18 l1487 3 50 27 c62 32 129 103 158 166 22
46 22 59 27 637 6 704 -5 648 129 677 47 10 119 35 160 55 l76 38 3 -680 c2
-595 0 -689 -14 -753z m-3451 1034 c39 -17 92 -71 106 -109 31 -82 0 -188 -68
-234 -60 -41 -99 -45 -390 -41 l-278 3 -48 30 c-135 84 -124 272 20 348 42 22
608 25 658 3z m1752 -78 c3 -13 4 -75 3 -138 l-3 -115 -512 -3 -513 -2 0 133
c0 74 3 137 7 140 3 4 233 7 509 7 l504 0 5 -22z"/>
</g>
</svg>
