<?xml version="1.0" standalone="no"?>
<!DOCTYPE svg PUBLIC "-//W3C//DTD SVG 20010904//EN"
 "http://www.w3.org/TR/2001/REC-SVG-20010904/DTD/svg10.dtd">
<svg version="1.0" xmlns="http://www.w3.org/2000/svg"
 width="700.000000pt" height="700.000000pt" viewBox="0 0 700.000000 700.000000"
 preserveAspectRatio="xMidYMid meet">
<metadata>
Created by potrace 1.14, written by Peter Selinger 2001-2017
</metadata>
<g transform="translate(0.000000,700.000000) scale(0.100000,-0.100000)"
fill="#000000" stroke="none">
<path d="M10 3500 l0 -3490 3490 0 3490 0 0 3490 0 3490 -3490 0 -3490 0 0
-3490z m4815 2012 c135 -46 231 -116 310 -227 77 -108 115 -245 115 -417 l0
-70 -93 -117 c-52 -64 -123 -156 -158 -205 l-64 -90 -5 320 c-4 286 -7 323
-24 354 -36 68 -66 99 -127 129 l-62 31 -1233 0 -1233 0 -15 -22 c-13 -19 -16
-61 -16 -255 l0 -233 -156 0 -155 0 3 273 c3 271 3 272 30 329 51 110 156 195
268 217 25 5 601 8 1295 8 l1250 -2 70 -23z m1401 -518 c65 -17 139 -68 181
-123 101 -131 95 -377 -13 -539 -54 -82 -119 -137 -223 -191 -135 -69 -193
-84 -306 -79 l-92 4 13 -33 c27 -64 10 -124 -57 -198 -93 -101 -292 -175 -476
-175 -40 0 -73 -1 -73 -2 0 -2 11 -25 25 -52 39 -78 29 -155 -31 -224 -58 -69
-191 -121 -306 -122 l-46 0 -175 -343 c-96 -189 -189 -367 -207 -396 -47 -76
-102 -99 -160 -65 -36 22 -60 64 -60 108 0 48 432 897 647 1271 530 920 943
1273 1359 1159z m-3863 -478 c60 -30 82 -69 82 -148 0 -80 -19 -112 -85 -145
-42 -22 -55 -23 -280 -23 -207 0 -240 3 -276 19 -148 67 -124 279 34 312 21 4
138 7 262 6 198 -2 230 -4 263 -21z m1992 -176 l0 -115 -697 -3 -698 -2 0 113
c0 63 3 117 7 120 3 4 317 6 697 5 l691 -3 0 -115z m-2135 -835 l0 -525 -155
0 -155 0 0 525 0 525 155 0 155 0 0 -525z m2136 18 c-3 -42 -6 -93 -6 -115 l0
-38 -695 0 -695 0 0 115 0 115 701 0 702 0 -7 -77z m890 -968 c-8 -627 -8
-632 -68 -755 -47 -97 -161 -208 -267 -259 -46 -22 -106 -45 -134 -51 -36 -7
-449 -10 -1322 -8 l-1270 3 -57 28 c-79 39 -143 104 -181 185 l-32 67 0 270 0
270 150 0 150 0 5 -243 c5 -227 6 -245 25 -258 16 -12 195 -14 1255 -12 1169
3 1237 4 1268 21 51 28 111 86 135 131 22 40 22 52 27 536 6 585 -2 546 112
574 40 9 98 30 128 45 30 16 61 29 69 30 12 1 13 -83 7 -574z m-2875 232 c105
-70 108 -206 6 -281 -27 -20 -43 -21 -275 -24 -152 -2 -261 1 -282 7 -20 6
-51 26 -70 46 -30 31 -35 43 -38 98 -3 53 0 67 20 97 13 19 39 45 57 57 33 22
40 23 291 23 251 0 258 -1 291 -23z m1437 -154 l-3 -118 -420 0 -420 0 -3 118
-3 117 426 0 426 0 -3 -117z"/>
</g>
</svg>
